<?xml version="1.0" encoding="utf-8"?>
<!-- Generator: Adobe Illustrator 27.0.0, SVG Export Plug-In . SVG Version: 6.00 Build 0)  -->
<svg version="1.1" id="Layer_1" xmlns="http://www.w3.org/2000/svg" xmlns:xlink="http://www.w3.org/1999/xlink" x="0px" y="0px"
	 viewBox="0 0 402.2 396" style="enable-background:new 0 0 402.2 396;" xml:space="preserve">
<style type="text/css">
	.st0{fill:url(#SVGID_1_);}
	.st1{fill:url(#SVGID_00000137131168014044010530000013267112867419705752_);}
</style>
<linearGradient id="SVGID_1_" gradientUnits="userSpaceOnUse" x1="118.6" y1="234.25" x2="402.2" y2="234.25" gradientTransform="matrix(1 0 0 -1 0 398)">
	<stop  offset="0" style="stop-color:#32007C"/>
	<stop  offset="1" style="stop-color:#00B5E2"/>
</linearGradient>
<polygon class="st0" points="260.4,0 155.5,60.6 190.9,81.9 260.4,41.8 366,102.8 366,224.7 260.4,285.7 154.7,224.8 154.7,124.8 
	141.5,117.2 118.6,130.4 118.6,245.6 260.4,327.5 402.2,245.6 402.2,81.9 "/>
<linearGradient id="SVGID_00000011006270013450405420000017312360266390794372_" gradientUnits="userSpaceOnUse" x1="0" y1="165.75" x2="283.6" y2="165.75" gradientTransform="matrix(1 0 0 -1 0 398)">
	<stop  offset="0" style="stop-color:#32007C"/>
	<stop  offset="1" style="stop-color:#00B5E2"/>
</linearGradient>
<polygon style="fill:url(#SVGID_00000011006270013450405420000017312360266390794372_);" points="0,150.3 0,314.1 141.8,396 
	246.6,335.5 210.4,314.6 141.8,354.2 36.2,293.2 36.2,171.2 141.8,110.2 247.5,171.2 247.5,271.2 260.5,278.7 283.6,265.4 
	283.6,150.3 141.8,68.5 "/>
</svg>
