<?xml version="1.0" encoding="utf-8"?>
<!-- Generator: Adobe Illustrator 27.0.0, SVG Export Plug-In . SVG Version: 6.00 Build 0)  -->
<svg version="1.1" id="Layer_1" xmlns="http://www.w3.org/2000/svg" xmlns:xlink="http://www.w3.org/1999/xlink" x="0px" y="0px"
	 viewBox="0 0 2517.7 374.3" style="enable-background:new 0 0 2517.7 374.3;" xml:space="preserve">
<path d="M2517.7,246.4v-17h-34V127.8h-17.2v118.6H2517.7z M2455.4,246.4v-17h-34v-34.8h29.6v-16h-29.6v-34.8h34v-16h-51.2v118.6
	H2455.4z M2357.6,143.8c5.1,0,8.5,1.3,10.4,3.8c1.9,2.6,2.9,6.2,2.9,10.8v57.2c0,5.1-1,8.9-3,11.2c-2,2.4-5.4,3.6-10.3,3.6h-7.9
	v-86.6H2357.6z M2356.4,246.4c10.2,0,18-2.6,23.5-7.9c5.4-5.3,8.2-13.5,8.2-24.6v-55.5c0-9.8-2.6-17.3-7.7-22.7
	c-5.1-5.3-12.6-8-22.5-8h-25.4v118.6H2356.4z M2277,155.8c0-4.1,1.1-7.1,3.5-9.1c2.3-1.9,5-2.9,8.2-2.9c3.1,0,5.9,1,8.2,2.9
	c2.3,1.9,3.4,5,3.4,9.1v62.6c0,4.1-1.1,7.1-3.4,9.1c-2.3,1.9-5,2.9-8.2,2.9c-3.1,0-5.9-1-8.2-2.9c-2.3-1.9-3.5-5-3.5-9.1V155.8z
	 M2259.8,218.4c0,5,0.8,9.3,2.5,12.8c1.7,3.6,3.9,6.5,6.7,8.8c2.7,2.4,5.8,4.3,9.2,5.5s6.9,1.8,10.3,1.8s6.9-0.6,10.4-1.8
	s6.5-3.1,9.3-5.5c2.7-2.3,4.9-5.3,6.6-8.8c1.7-3.6,2.5-7.8,2.5-12.8v-62.6c0-4.8-0.8-9-2.5-12.7c-1.7-3.7-3.9-6.7-6.6-9.2
	c-2.8-2.3-5.9-4.1-9.3-5.3c-3.4-1.2-6.9-1.8-10.4-1.8s-6.9,0.6-10.3,1.8c-3.4,1.2-6.5,3-9.2,5.3c-2.8,2.4-5,5.5-6.7,9.2
	c-1.7,3.7-2.5,7.9-2.5,12.7V218.4z M2184.4,246.4v-72.1h0.3l16.8,51h8.6l17-51h0.3v72.1h17.2V127.8H2228l-21.9,62.8h-0.3l-22-62.8
	h-16.5v118.6H2184.4z"/>
<path d="M2077.7,246.4v-71.3h0.3l26.3,71.3h16.2V127.8h-17.2v71.5h-0.3l-25.9-71.5h-16.5v118.6H2077.7z M2044.6,127.8h-17.2v118.6
	h17.2V127.8z M1967.8,246.4l5.1-25.5h23.4l5.1,25.5h17.2l-26.8-118.6h-14.3l-26.8,118.6H1967.8z M1975.9,205l8.4-43h0.3l8.4,43
	H1975.9z M1882,246.4v-72.1h0.3l16.8,51h8.6l17-51h0.3v72.1h17.2V127.8h-16.7l-21.9,62.8h-0.3l-22.1-62.8h-16.5v118.6H1882z
	 M1809.3,155.8c0-4.1,1.1-7.1,3.5-9.1c2.3-1.9,5-2.9,8.2-2.9c3.1,0,5.9,1,8.2,2.9c2.3,1.9,3.5,5,3.5,9.1v62.6c0,4.1-1.2,7.1-3.5,9.1
	c-2.3,1.9-5,2.9-8.2,2.9c-3.1,0-5.9-1-8.2-2.9c-2.3-1.9-3.5-5-3.5-9.1V155.8z M1792.1,218.4c0,5,0.8,9.3,2.5,12.8
	c1.7,3.6,3.9,6.5,6.7,8.8c2.7,2.4,5.8,4.3,9.2,5.5c3.4,1.2,6.9,1.8,10.3,1.8c3.5,0,6.9-0.6,10.4-1.8c3.4-1.2,6.5-3.1,9.3-5.5
	c2.7-2.3,4.9-5.3,6.6-8.8c1.7-3.6,2.5-7.8,2.5-12.8v-62.6c0-4.8-0.8-9-2.5-12.7c-1.7-3.7-3.9-6.7-6.6-9.2c-2.8-2.3-5.9-4.1-9.3-5.3
	c-3.4-1.2-6.9-1.8-10.4-1.8c-3.5,0-6.9,0.6-10.3,1.8c-3.4,1.2-6.5,3-9.2,5.3c-2.8,2.4-5,5.5-6.7,9.2c-1.7,3.7-2.5,7.9-2.5,12.7
	V218.4z M1746.5,143.8c5.1,0,8.5,1.3,10.4,3.8c1.9,2.6,2.9,6.2,2.9,10.8v57.2c0,5.1-1,8.9-3,11.2c-2,2.4-5.4,3.6-10.3,3.6h-7.9
	v-86.6H1746.5z M1745.3,246.4c10.2,0,18-2.6,23.5-7.9c5.4-5.3,8.2-13.5,8.2-24.6v-55.5c0-9.8-2.6-17.3-7.7-22.7
	c-5.1-5.3-12.6-8-22.5-8h-25.4v118.6H1745.3z"/>
<path d="M1631.9,246.4v-71.3h0.3l26.3,71.3h16.2V127.8h-17.2v71.5h-0.3l-25.9-71.5h-16.5v118.6H1631.9z M1559.9,155.8
	c0-4.1,1.2-7.1,3.5-9.1c2.3-1.9,5-2.9,8.2-2.9c3.1,0,5.9,1,8.2,2.9c2.3,1.9,3.5,5,3.5,9.1v62.6c0,4.1-1.2,7.1-3.5,9.1
	c-2.3,1.9-5,2.9-8.2,2.9c-3.1,0-5.9-1-8.2-2.9c-2.3-1.9-3.5-5-3.5-9.1V155.8z M1542.7,218.5c0,5,0.8,9.3,2.5,12.8
	c1.7,3.6,3.9,6.5,6.7,8.8c2.7,2.4,5.7,4.3,9.2,5.5c3.4,1.2,6.9,1.8,10.4,1.8c3.5,0,6.9-0.6,10.3-1.8c3.4-1.2,6.5-3.1,9.3-5.5
	c2.7-2.3,4.9-5.3,6.6-8.8c1.7-3.6,2.5-7.8,2.5-12.8v-62.6c0-4.8-0.8-9-2.5-12.7c-1.7-3.7-3.9-6.7-6.6-9.2c-2.8-2.3-5.9-4.1-9.3-5.3
	c-3.4-1.2-6.9-1.8-10.3-1.8c-3.5,0-6.9,0.6-10.4,1.8c-3.4,1.2-6.5,3-9.2,5.3c-2.8,2.4-5.1,5.5-6.7,9.2c-1.7,3.7-2.5,7.9-2.5,12.7
	V218.5z M1467.3,246.4v-72.1h0.3l16.8,51h8.6l17-51h0.3v72.1h17.2V127.8h-16.7l-21.9,62.8h-0.3l-22.1-62.8h-16.5v118.6H1467.3z
	 M1373.7,246.4v-72.1h0.3l16.8,51h8.6l17-51h0.3v72.1h17.2V127.8h-16.7l-21.9,62.8h-0.3l-22.1-62.8h-16.5v118.6H1373.7z M1301,155.8
	c0-4.1,1.2-7.1,3.5-9.1c2.3-1.9,5-2.9,8.2-2.9c3.1,0,5.9,1,8.2,2.9c2.3,1.9,3.5,5,3.5,9.1v62.6c0,4.1-1.2,7.1-3.5,9.1
	c-2.3,1.9-5,2.9-8.2,2.9c-3.1,0-5.9-1-8.2-2.9c-2.3-1.9-3.5-5-3.5-9.1V155.8z M1283.8,218.5c0,5,0.8,9.3,2.5,12.8
	c1.7,3.6,3.9,6.5,6.7,8.8c2.7,2.4,5.8,4.3,9.2,5.5c3.4,1.2,6.9,1.8,10.3,1.8c3.5,0,6.9-0.6,10.4-1.8c3.4-1.2,6.5-3.1,9.3-5.5
	c2.7-2.3,4.9-5.3,6.6-8.8c1.7-3.6,2.5-7.8,2.5-12.8v-62.6c0-4.8-0.8-9-2.5-12.7c-1.7-3.7-3.9-6.7-6.6-9.2c-2.8-2.3-5.9-4.1-9.3-5.3
	c-3.4-1.2-6.9-1.8-10.4-1.8c-3.5,0-6.9,0.6-10.3,1.8c-3.4,1.2-6.5,3-9.2,5.3c-2.8,2.4-5,5.5-6.7,9.2c-1.7,3.7-2.5,7.9-2.5,12.7
	V218.5z M1253.7,212.6v5.8c0,2.3-0.3,4.3-1,5.8c-0.7,1.6-1.5,2.8-2.5,3.7c-1.1,0.9-2.3,1.5-3.6,1.9c-1.3,0.4-2.5,0.6-3.6,0.6
	c-3.9,0-6.6-1.2-8.2-3.5c-1.5-2.3-2.3-5.2-2.3-8.7v-60.6c0-4,0.7-7.3,2.1-9.9c1.4-2.6,4.2-3.9,8.5-3.9c3.2,0,5.8,1.2,7.7,3.7
	c1.9,2.4,2.9,5.3,2.9,8.7v5.7h17.2v-6.7c0-4.1-0.7-7.9-2.1-11.4c-1.4-3.5-3.3-6.5-5.8-9.1c-5.1-5.2-11.6-7.8-19.7-7.8
	c-4.2,0-7.9,0.7-11.4,2.1c-3.4,1.4-6.4,3.3-8.8,5.7c-2.5,2.4-4.4,5.3-5.7,8.7c-1.4,3.3-2,6.9-2,10.8v65.3c0,5.4,0.9,9.9,2.6,13.4
	c1.7,3.5,4,6.4,6.6,8.6c2.7,2.2,5.7,3.8,9.1,4.7c3.4,0.9,6.7,1.3,9.9,1.3c3.8,0,7.4-0.8,10.7-2.3c3.3-1.5,6.2-3.5,8.7-6.1
	c2.5-2.6,4.4-5.5,5.8-8.8c1.4-3.3,2.1-6.7,2.1-10.4v-7.3H1253.7z"/>
<polygon points="144.1,59.8 176.9,79.5 241.3,42.4 339.2,98.9 339.2,211.9 241.3,268.5 143.4,211.9 143.4,119.3 131.1,112.2 
	109.9,124.5 109.9,231.3 241.3,307.2 372.7,231.3 372.7,79.5 241.3,3.6 "/>
<polygon points="0,143 0,294.7 131.4,370.6 228.5,314.5 195,295.2 131.4,331.9 33.5,275.4 33.5,162.3 131.4,105.8 229.3,162.3 
	229.3,255 241.4,262 262.8,249.6 262.8,143 131.4,67.1 "/>
<path d="M843.6,332.5V155.7h0.8l40.8,124.9h20.8l41.2-124.9h0.8v176.8h41.6V41.8h-40.4l-53.1,153.9h-0.8L842,41.8h-40v290.7H843.6z
	 M688.8,81c12.2,0,20.7,3.1,25.3,9.4c4.6,6.3,6.9,15.1,6.9,26.5v140.1c0,12.5-2.5,21.7-7.4,27.6c-4.9,5.9-13.2,8.8-24.9,8.8h-19.2
	V81H688.8z M686,332.5c24.8,0,43.8-6.5,57-19.4c13.2-12.9,19.8-33,19.8-60.2v-136c0-24-6.2-42.5-18.6-55.5
	c-12.4-13.1-30.6-19.6-54.5-19.6H628v290.7H686z M552.5,249.6v14.3c0,5.7-0.8,10.5-2.4,14.3c-1.6,3.8-3.7,6.8-6.1,9
	c-2.7,2.2-5.6,3.7-8.8,4.7c-3.1,1-6.1,1.4-8.8,1.4c-9.5,0-16.1-2.9-19.8-8.6c-3.7-5.7-5.5-12.8-5.5-21.2V114.9
	c0-9.8,1.7-17.9,5.1-24.3c3.4-6.4,10.3-9.6,20.6-9.6c7.9,0,14.2,3,18.8,9c4.6,6,6.9,13.1,6.9,21.2v13.9h41.6v-16.3
	c0-10.1-1.7-19.4-5.1-28c-3.4-8.6-8.1-16-14.1-22.3c-12.3-12.8-28.2-19.2-47.8-19.2c-10.1,0-19.3,1.7-27.6,5.1
	c-8.3,3.4-15.5,8.1-21.4,14.1c-6,6-10.6,13.1-13.9,21.2c-3.3,8.2-4.9,17-4.9,26.5v160.1c0,13.3,2.1,24.3,6.3,32.9
	c4.2,8.6,9.6,15.6,16.1,21c6.5,5.5,13.9,9.3,22,11.4c8.2,2.2,16.2,3.3,24.1,3.3c9.2,0,17.9-1.8,25.9-5.5c8-3.7,15-8.6,21-14.9
	c6-6.3,10.7-13.4,14.1-21.4s5.1-16.5,5.1-25.5v-18H552.5z"/>
<rect x="1099.5" width="6.2" height="374.3"/>
</svg>
