<?xml version="1.0" encoding="utf-8"?>
<!-- Generator: Adobe Illustrator 27.0.0, SVG Export Plug-In . SVG Version: 6.00 Build 0)  -->
<svg version="1.1" id="Layer_1" xmlns="http://www.w3.org/2000/svg" xmlns:xlink="http://www.w3.org/1999/xlink" x="0px" y="0px"
	 viewBox="0 0 799.5 414.2" style="enable-background:new 0 0 799.5 414.2;" xml:space="preserve">
<g>
	<path d="M799.5,413.6v-10.5h-20.9v-63h-10.5v73.6H799.5z M761.2,413.6v-10.5h-20.9v-21.6h18.2v-9.9h-18.2V350h20.9V340h-31.4v73.6
		H761.2z M701.2,350c3.1,0,5.2,0.8,6.4,2.4c1.2,1.6,1.8,3.8,1.8,6.7v35.4c0,3.2-0.6,5.5-1.9,7c-1.2,1.5-3.3,2.2-6.3,2.2h-4.9V350
		H701.2z M700.5,413.6c6.3,0,11.1-1.6,14.4-4.9c3.3-3.3,5-8.3,5-15.2V359c0-6.1-1.6-10.7-4.7-14.1c-3.1-3.3-7.7-5-13.8-5h-15.6v73.6
		H700.5z M651.7,357.4c0-2.5,0.7-4.4,2.1-5.6c1.4-1.2,3.1-1.8,5-1.8c1.9,0,3.6,0.6,5,1.8c1.4,1.2,2.1,3.1,2.1,5.6v38.8
		c0,2.5-0.7,4.4-2.1,5.6c-1.4,1.2-3.1,1.8-5,1.8c-1.9,0-3.6-0.6-5-1.8c-1.4-1.2-2.1-3.1-2.1-5.6V357.4z M641.2,396.2
		c0,3.1,0.5,5.8,1.6,8c1,2.2,2.4,4,4.1,5.5c1.7,1.5,3.5,2.7,5.6,3.4c2.1,0.8,4.2,1.1,6.4,1.1c2.1,0,4.3-0.4,6.4-1.1
		c2.1-0.8,4-1.9,5.7-3.4c1.7-1.4,3-3.3,4-5.5c1-2.2,1.5-4.9,1.5-8v-38.8c0-3-0.5-5.6-1.5-7.9c-1-2.3-2.4-4.2-4-5.7
		c-1.7-1.4-3.6-2.5-5.7-3.3c-2.1-0.8-4.2-1.1-6.4-1.1c-2.1,0-4.3,0.4-6.4,1.1c-2.1,0.8-4,1.9-5.6,3.3c-1.7,1.5-3.1,3.4-4.1,5.7
		c-1,2.3-1.6,4.9-1.6,7.9V396.2z M594.9,413.6v-44.7h0.2l10.3,31.6h5.3l10.4-31.6h0.2v44.7h10.5V340h-10.2L608.2,379H608L594.5,340
		h-10.1v73.6H594.9z"/>
	<path d="M529.4,413.6v-44.2h0.2l16.1,44.2h9.9V340h-10.5v44.3h-0.2L529,340h-10.1v73.6H529.4z M509,340h-10.5v73.6H509V340z
		 M461.9,413.6l3.1-15.8h14.4l3.1,15.8H493L476.6,340h-8.8l-16.4,73.6H461.9z M466.9,387.9l5.2-26.7h0.2l5.2,26.7H466.9z
		 M409.2,413.6v-44.7h0.2l10.3,31.6h5.3l10.4-31.6h0.2v44.7h10.5V340H436L422.6,379h-0.2L408.8,340h-10.1v73.6H409.2z M364.6,357.4
		c0-2.5,0.7-4.4,2.1-5.6c1.4-1.2,3.1-1.8,5-1.8c1.9,0,3.6,0.6,5,1.8c1.4,1.2,2.1,3.1,2.1,5.6v38.8c0,2.5-0.7,4.4-2.1,5.6
		c-1.4,1.2-3.1,1.8-5,1.8c-1.9,0-3.6-0.6-5-1.8c-1.4-1.2-2.1-3.1-2.1-5.6V357.4z M354.1,396.2c0,3.1,0.5,5.8,1.5,8
		c1,2.2,2.4,4,4.1,5.5c1.7,1.5,3.5,2.7,5.6,3.4c2.1,0.8,4.2,1.1,6.4,1.1c2.1,0,4.3-0.4,6.4-1.1c2.1-0.8,4-1.9,5.7-3.4
		c1.7-1.4,3-3.3,4-5.5c1-2.2,1.5-4.9,1.5-8v-38.8c0-3-0.5-5.6-1.5-7.9c-1-2.3-2.4-4.2-4-5.7c-1.7-1.4-3.6-2.5-5.7-3.3
		c-2.1-0.8-4.2-1.1-6.4-1.1c-2.1,0-4.3,0.4-6.4,1.1c-2.1,0.8-4,1.9-5.6,3.3c-1.7,1.5-3.1,3.4-4.1,5.7c-1,2.3-1.5,4.9-1.5,7.9V396.2z
		 M326.1,350c3.1,0,5.2,0.8,6.4,2.4c1.2,1.6,1.8,3.8,1.8,6.7v35.4c0,3.2-0.6,5.5-1.9,7s-3.3,2.2-6.3,2.2h-4.9V350H326.1z
		 M325.3,413.6c6.3,0,11.1-1.6,14.4-4.9c3.3-3.3,5-8.3,5-15.2V359c0-6.1-1.6-10.7-4.7-14.1c-3.1-3.3-7.7-5-13.8-5h-15.6v73.6H325.3z
		"/>
	<path d="M255.7,413.6v-44.2h0.2l16.1,44.2h9.9V340h-10.5v44.3h-0.2L255.3,340h-10.1v73.6H255.7z M211.5,357.4
		c0-2.5,0.7-4.4,2.1-5.6c1.4-1.2,3.1-1.8,5-1.8c1.9,0,3.6,0.6,5,1.8c1.4,1.2,2.1,3.1,2.1,5.6v38.8c0,2.5-0.7,4.4-2.1,5.6
		c-1.4,1.2-3.1,1.8-5,1.8c-1.9,0-3.6-0.6-5-1.8c-1.4-1.2-2.1-3.1-2.1-5.6V357.4z M201,396.2c0,3.1,0.5,5.8,1.5,8
		c1,2.2,2.4,4,4.1,5.5c1.7,1.5,3.5,2.7,5.6,3.4c2.1,0.8,4.2,1.1,6.4,1.1c2.1,0,4.3-0.4,6.4-1.1c2.1-0.8,4-1.9,5.7-3.4
		c1.7-1.4,3-3.3,4-5.5c1-2.2,1.5-4.9,1.5-8v-38.8c0-3-0.5-5.6-1.5-7.9c-1-2.3-2.4-4.2-4-5.7c-1.7-1.4-3.6-2.5-5.7-3.3
		c-2.1-0.8-4.2-1.1-6.4-1.1c-2.1,0-4.3,0.4-6.4,1.1c-2.1,0.8-4,1.9-5.6,3.3c-1.7,1.5-3.1,3.4-4.1,5.7c-1,2.3-1.5,4.9-1.5,7.9V396.2z
		 M154.7,413.6v-44.7h0.2l10.3,31.6h5.3l10.4-31.6h0.2v44.7h10.5V340h-10.2L168,379h-0.2L154.3,340h-10.1v73.6H154.7z M97.2,413.6
		v-44.7h0.2l10.3,31.6h5.3l10.4-31.6h0.2v44.7h10.5V340H124L110.5,379h-0.2L96.8,340H86.7v73.6H97.2z M52.6,357.4
		c0-2.5,0.7-4.4,2.1-5.6c1.4-1.2,3.1-1.8,5-1.8c1.9,0,3.6,0.6,5,1.8c1.4,1.2,2.1,3.1,2.1,5.6v38.8c0,2.5-0.7,4.4-2.1,5.6
		c-1.4,1.2-3.1,1.8-5,1.8c-1.9,0-3.6-0.6-5-1.8c-1.4-1.2-2.1-3.1-2.1-5.6V357.4z M42.1,396.2c0,3.1,0.5,5.8,1.5,8
		c1,2.2,2.4,4,4.1,5.5c1.7,1.5,3.5,2.7,5.6,3.4c2.1,0.8,4.2,1.1,6.4,1.1c2.1,0,4.3-0.4,6.4-1.1c2.1-0.8,4-1.9,5.7-3.4
		c1.7-1.4,3-3.3,4-5.5c1-2.2,1.5-4.9,1.5-8v-38.8c0-3-0.5-5.6-1.5-7.9c-1-2.3-2.4-4.2-4-5.7c-1.7-1.4-3.6-2.5-5.7-3.3
		c-2.1-0.8-4.2-1.1-6.4-1.1c-2.1,0-4.3,0.4-6.4,1.1c-2.1,0.8-4,1.9-5.6,3.3c-1.7,1.5-3.1,3.4-4.1,5.7c-1,2.3-1.5,4.9-1.5,7.9V396.2z
		 M23.6,392.6v3.6c0,1.4-0.2,2.7-0.6,3.6c-0.4,1-0.9,1.7-1.5,2.3c-0.7,0.6-1.4,0.9-2.2,1.2c-0.8,0.2-1.5,0.4-2.2,0.4
		c-2.4,0-4.1-0.7-5-2.2c-0.9-1.4-1.4-3.2-1.4-5.4v-37.6c0-2.5,0.4-4.5,1.3-6.1c0.9-1.6,2.6-2.4,5.2-2.4c2,0,3.6,0.8,4.8,2.3
		c1.2,1.5,1.8,3.3,1.8,5.4v3.5h10.5V357c0-2.5-0.4-4.9-1.3-7.1c-0.9-2.2-2.1-4-3.6-5.6c-3.1-3.2-7.1-4.9-12.1-4.9
		c-2.6,0-4.9,0.4-7,1.3c-2.1,0.9-3.9,2-5.4,3.6c-1.5,1.5-2.7,3.3-3.5,5.4C0.4,351.7,0,354,0,356.4v40.5c0,3.4,0.5,6.1,1.6,8.3
		c1.1,2.2,2.4,3.9,4.1,5.3c1.7,1.4,3.5,2.3,5.6,2.9c2.1,0.6,4.1,0.8,6.1,0.8c2.3,0,4.5-0.5,6.6-1.4c2-0.9,3.8-2.2,5.3-3.8
		c1.5-1.6,2.7-3.4,3.6-5.4c0.9-2,1.3-4.2,1.3-6.5v-4.5H23.6z"/>
	<polygon points="190,0 113.5,44.2 139.3,59.7 190,30.5 267.1,75 267.1,164 190,208.5 112.9,164 112.9,91.1 103.3,85.5 86.5,95.2 
		86.5,179.3 190,239 293.5,179.3 293.5,59.8 	"/>
	<polygon points="0,109.7 0,229.2 103.5,289 180,244.8 153.6,229.6 103.5,258.5 26.4,214 26.4,125 103.5,80.4 180.6,125 
		180.6,197.9 190.1,203.4 207,193.7 207,109.7 103.5,50 	"/>
	<path d="M664.4,259V119.7h0.6l32.2,98.4h16.4l32.5-98.4h0.6V259h32.8V30h-31.8l-41.8,121.2h-0.6L663.1,30h-31.5v229H664.4z
		 M542.5,60.9c9.6,0,16.3,2.5,19.9,7.4c3.6,4.9,5.5,11.9,5.5,20.9v110.3c0,9.9-1.9,17.1-5.8,21.7c-3.9,4.6-10.4,6.9-19.6,6.9h-15.1
		V60.9H542.5z M540.2,259c19.5,0,34.5-5.1,44.9-15.3c10.4-10.2,15.6-26,15.6-47.4V89.2c0-18.9-4.9-33.4-14.6-43.7
		C576.3,35.2,562,30,543.1,30h-48.6v229H540.2z M435.1,193.7v11.3c0,4.5-0.6,8.3-1.9,11.3c-1.3,3-2.9,5.4-4.8,7.1
		c-2.1,1.7-4.5,2.9-6.9,3.7c-2.5,0.8-4.8,1.1-6.9,1.1c-7.5,0-12.7-2.2-15.6-6.8c-2.9-4.5-4.3-10.1-4.3-16.7V87.6
		c0-7.7,1.3-14.1,4-19.1c2.7-5,8.1-7.6,16.2-7.6c6.2,0,11.1,2.4,14.8,7.1c3.6,4.7,5.5,10.3,5.5,16.7v10.9h32.8V82.8
		c0-7.9-1.3-15.3-4-22c-2.7-6.8-6.4-12.6-11.1-17.5c-9.6-10.1-22.2-15.1-37.6-15.1c-7.9,0-15.2,1.3-21.7,4
		c-6.5,2.7-12.2,6.4-16.9,11.1c-4.7,4.7-8.4,10.3-10.9,16.7s-3.9,13.4-3.9,20.9v126.1c0,10.5,1.7,19.1,5,25.9
		c3.3,6.8,7.6,12.3,12.7,16.6c5.1,4.3,10.9,7.3,17.4,9c6.4,1.7,12.8,2.6,19,2.6c7.3,0,14.1-1.4,20.4-4.3c6.3-2.9,11.8-6.8,16.6-11.7
		c4.7-4.9,8.4-10.6,11.1-16.9c2.7-6.3,4-13,4-20.1v-14.1H435.1z"/>
</g>
</svg>
