<?xml version="1.0" encoding="utf-8"?>
<!-- Generator: Adobe Illustrator 27.0.0, SVG Export Plug-In . SVG Version: 6.00 Build 0)  -->
<svg version="1.1" id="Layer_1" xmlns="http://www.w3.org/2000/svg" xmlns:xlink="http://www.w3.org/1999/xlink" x="0px" y="0px"
	 viewBox="0 0 799.5 74.8" style="enable-background:new 0 0 799.5 74.8;" xml:space="preserve">
<style type="text/css">
	.st0{fill:#FFFFFF;}
</style>
<path class="st0" d="M799.5,74.2V63.7h-20.9v-63h-10.5v73.6h31.4V74.2z M761.2,74.2V63.7h-20.9V42.1h18.2v-9.9h-18.2V10.6h20.9v-10
	h-31.4v73.6H761.2z M701.2,10.6c3.1,0,5.2,0.8,6.4,2.4s1.8,3.8,1.8,6.7v35.4c0,3.2-0.6,5.5-1.9,7c-1.2,1.5-3.3,2.2-6.3,2.2h-4.9
	V10.6H701.2z M700.5,74.2c6.3,0,11.1-1.6,14.4-4.9c3.3-3.3,5-8.3,5-15.2V19.6c0-6.1-1.6-10.7-4.7-14.1c-3.1-3.3-7.7-5-13.8-5h-15.6
	v73.6h14.7V74.2z M651.7,18c0-2.5,0.7-4.4,2.1-5.6c1.4-1.2,3.1-1.8,5-1.8s3.6,0.6,5,1.8c1.4,1.2,2.1,3.1,2.1,5.6v38.8
	c0,2.5-0.7,4.4-2.1,5.6c-1.4,1.2-3.1,1.8-5,1.8s-3.6-0.6-5-1.8c-1.4-1.2-2.1-3.1-2.1-5.6V18z M641.2,56.8c0,3.1,0.5,5.8,1.6,8
	c1,2.2,2.4,4,4.1,5.5c1.7,1.5,3.5,2.7,5.6,3.4c2.1,0.8,4.2,1.1,6.4,1.1c2.1,0,4.3-0.4,6.4-1.1c2.1-0.8,4-1.9,5.7-3.4
	c1.7-1.4,3-3.3,4-5.5s1.5-4.9,1.5-8V18c0-3-0.5-5.6-1.5-7.9s-2.4-4.2-4-5.7c-1.7-1.4-3.6-2.5-5.7-3.3c-2.1-0.8-4.2-1.1-6.4-1.1
	c-2.1,0-4.3,0.4-6.4,1.1c-2.1,0.8-4,1.9-5.6,3.3c-1.7,1.5-3.1,3.4-4.1,5.7c-1,2.3-1.6,4.9-1.6,7.9V56.8z M594.9,74.2V29.5h0.2
	l10.3,31.6h5.3l10.4-31.6h0.2v44.7h10.5V0.6h-10.2l-13.4,39H608l-13.5-39h-10.1v73.6H594.9z"/>
<path class="st0" d="M529.4,74.2V30h0.2l16.1,44.2h9.9V0.6h-10.5v44.3h-0.2L529,0.6h-10.1v73.6H529.4z M509,0.6h-10.5v73.6H509V0.6z
	 M461.9,74.2l3.1-15.8h14.4l3.1,15.8H493L476.6,0.6h-8.8l-16.4,73.6H461.9z M466.9,48.5l5.2-26.7h0.2l5.2,26.7H466.9z M409.2,74.2
	V29.5h0.2l10.3,31.6h5.3l10.4-31.6h0.2v44.7h10.5V0.6H436l-13.4,39h-0.2l-13.6-39h-10.1v73.6H409.2z M364.6,18
	c0-2.5,0.7-4.4,2.1-5.6s3.1-1.8,5-1.8s3.6,0.6,5,1.8c1.4,1.2,2.1,3.1,2.1,5.6v38.8c0,2.5-0.7,4.4-2.1,5.6s-3.1,1.8-5,1.8
	s-3.6-0.6-5-1.8c-1.4-1.2-2.1-3.1-2.1-5.6V18z M354.1,56.8c0,3.1,0.5,5.8,1.5,8s2.4,4,4.1,5.5s3.5,2.7,5.6,3.4
	c2.1,0.8,4.2,1.1,6.4,1.1c2.1,0,4.3-0.4,6.4-1.1c2.1-0.8,4-1.9,5.7-3.4c1.7-1.4,3-3.3,4-5.5s1.5-4.9,1.5-8V18c0-3-0.5-5.6-1.5-7.9
	s-2.4-4.2-4-5.7c-1.7-1.4-3.6-2.5-5.7-3.3S373.9,0,371.7,0c-2.1,0-4.3,0.4-6.4,1.1c-2.1,0.8-4,1.9-5.6,3.3c-1.7,1.5-3.1,3.4-4.1,5.7
	c-1,2.3-1.5,4.9-1.5,7.9V56.8z M326.1,10.6c3.1,0,5.2,0.8,6.4,2.4c1.2,1.6,1.8,3.8,1.8,6.7v35.4c0,3.2-0.6,5.5-1.9,7
	s-3.3,2.2-6.3,2.2h-4.9V10.6H326.1z M325.3,74.2c6.3,0,11.1-1.6,14.4-4.9s5-8.3,5-15.2V19.6c0-6.1-1.6-10.7-4.7-14.1
	c-3.1-3.3-7.7-5-13.8-5h-15.6v73.6h14.7V74.2z"/>
<path class="st0" d="M255.7,74.2V30h0.2L272,74.2h9.9V0.6h-10.5v44.3h-0.2L255.3,0.6h-10.1v73.6H255.7z M211.5,18
	c0-2.5,0.7-4.4,2.1-5.6c1.4-1.2,3.1-1.8,5-1.8s3.6,0.6,5,1.8c1.4,1.2,2.1,3.1,2.1,5.6v38.8c0,2.5-0.7,4.4-2.1,5.6
	c-1.4,1.2-3.1,1.8-5,1.8s-3.6-0.6-5-1.8c-1.4-1.2-2.1-3.1-2.1-5.6V18z M201,56.8c0,3.1,0.5,5.8,1.5,8s2.4,4,4.1,5.5
	c1.7,1.5,3.5,2.7,5.6,3.4c2.1,0.8,4.2,1.1,6.4,1.1c2.1,0,4.3-0.4,6.4-1.1c2.1-0.8,4-1.9,5.7-3.4c1.7-1.4,3-3.3,4-5.5s1.5-4.9,1.5-8
	V18c0-3-0.5-5.6-1.5-7.9s-2.4-4.2-4-5.7C229,3,227.1,1.9,225,1.1c-2.1-0.8-4.2-1.1-6.4-1.1c-2.1,0-4.3,0.4-6.4,1.1
	c-2.1,0.8-4,1.9-5.6,3.3c-1.7,1.5-3.1,3.4-4.1,5.7c-1,2.3-1.5,4.9-1.5,7.9V56.8z M154.7,74.2V29.5h0.2l10.3,31.6h5.3l10.4-31.6h0.2
	v44.7h10.5V0.6h-10.2l-13.4,39h-0.2l-13.5-39h-10.1v73.6H154.7z M97.2,74.2V29.5h0.2l10.3,31.6h5.3l10.4-31.6h0.2v44.7h10.5V0.6H124
	l-13.5,39h-0.2l-13.5-39H86.7v73.6H97.2z M52.6,18c0-2.5,0.7-4.4,2.1-5.6c1.4-1.2,3.1-1.8,5-1.8s3.6,0.6,5,1.8
	c1.4,1.2,2.1,3.1,2.1,5.6v38.8c0,2.5-0.7,4.4-2.1,5.6s-3.1,1.8-5,1.8s-3.6-0.6-5-1.8c-1.4-1.2-2.1-3.1-2.1-5.6V18z M42.1,56.8
	c0,3.1,0.5,5.8,1.5,8s2.4,4,4.1,5.5c1.7,1.5,3.5,2.7,5.6,3.4c2.1,0.8,4.2,1.1,6.4,1.1c2.1,0,4.3-0.4,6.4-1.1c2.1-0.8,4-1.9,5.7-3.4
	c1.7-1.4,3-3.3,4-5.5s1.5-4.9,1.5-8V18c0-3-0.5-5.6-1.5-7.9s-2.4-4.2-4-5.7c-1.7-1.4-3.6-2.5-5.7-3.3S61.9,0,59.7,0
	c-2.1,0-4.3,0.4-6.4,1.1c-2.1,0.8-4,1.9-5.6,3.3c-1.7,1.5-3.1,3.4-4.1,5.7c-1,2.3-1.5,4.9-1.5,7.9V56.8z M23.6,53.2v3.6
	c0,1.4-0.2,2.7-0.6,3.6c-0.4,1-0.9,1.7-1.5,2.3c-0.7,0.6-1.4,0.9-2.2,1.2c-0.8,0.2-1.5,0.4-2.2,0.4c-2.4,0-4.1-0.7-5-2.2
	c-0.9-1.4-1.4-3.2-1.4-5.4V19.1c0-2.5,0.4-4.5,1.3-6.1c0.9-1.6,2.6-2.4,5.2-2.4c2,0,3.6,0.8,4.8,2.3s1.8,3.3,1.8,5.4v3.5h10.5v-4.2
	c0-2.5-0.4-4.9-1.3-7.1c-0.9-2.2-2.1-4-3.6-5.6C26.3,1.7,22.3,0,17.3,0c-2.6,0-4.9,0.4-7,1.3s-3.9,2-5.4,3.6
	c-1.5,1.5-2.7,3.3-3.5,5.4c-1,2-1.4,4.3-1.4,6.7v40.5c0,3.4,0.5,6.1,1.6,8.3C2.7,68,4,69.7,5.7,71.1s3.5,2.3,5.6,2.9
	s4.1,0.8,6.1,0.8c2.3,0,4.5-0.5,6.6-1.4c2-0.9,3.8-2.2,5.3-3.8c1.5-1.6,2.7-3.4,3.6-5.4c0.9-2,1.3-4.2,1.3-6.5v-4.5L23.6,53.2
	L23.6,53.2z"/>
</svg>
