<?xml version="1.0" encoding="utf-8"?>
<!-- Generator: Adobe Illustrator 27.7.0, SVG Export Plug-In . SVG Version: 6.00 Build 0)  -->
<svg version="1.1" id="Layer_1" xmlns="http://www.w3.org/2000/svg" xmlns:xlink="http://www.w3.org/1999/xlink" x="0px" y="0px"
	 viewBox="0 0 1200 300" style="enable-background:new 0 0 1200 300;" xml:space="preserve">
<style type="text/css">
	.st0{fill:url(#SVGID_1_);}
	.st1{fill:none;}
	.st2{fill:url(#SVGID_00000041997082349625291170000010363632953424472196_);}
	.st3{fill:url(#SVGID_00000021113757733854960350000014439556067063341992_);}
</style>
<linearGradient id="SVGID_1_" gradientUnits="userSpaceOnUse" x1="5.8888" y1="150" x2="1199.7035" y2="150" gradientTransform="matrix(-1 0 0 1 1200 0)">
	<stop  offset="0" style="stop-color:#00B5E2"/>
	<stop  offset="1" style="stop-color:#32007C"/>
</linearGradient>
<polygon class="st0" points="0.3,0 1200.3,0 1200.3,300 0.3,300 "/>
<rect x="0.3" class="st1" width="1200" height="300"/>
<g>
	
		<linearGradient id="SVGID_00000004511971483553696450000001188530700515632016_" gradientUnits="userSpaceOnUse" x1="0" y1="150" x2="439.725" y2="150" gradientTransform="matrix(1 0 0 -1 0 300)">
		<stop  offset="0" style="stop-color:#00B5E2"/>
		<stop  offset="1" style="stop-color:#32007C"/>
	</linearGradient>
	<path style="fill:url(#SVGID_00000004511971483553696450000001188530700515632016_);" d="M354,300h1.2l82.2-140.5
		c3.1-5.2,3.1-13.7,0-18.9L355.1,0H354l82.5,141c2.9,4.9,2.9,13,0,17.9L354,300z M14.6,94H0v1h14.6c5.7,0,12.7,4,15.6,9L52,141
		c2.9,4.9,2.9,13,0,17.9L30.3,196c-2.9,4.9-9.9,9-15.6,9H0v1h14.6c6,0,13.5-4.2,16.5-9.5l21.7-37.1c3.1-5.2,3.1-13.7,0-18.9
		l-21.7-37.1C28.1,98.2,20.7,94,14.6,94 M36,57.4H0v1h36c5.7,0,12.7,4,15.6,9L94.7,141c2.9,4.9,2.9,13,0,17.9l-43.1,73.6
		c-2.9,4.9-9.9,9-15.6,9H0v1h36c6,0,13.5-4.2,16.5-9.5l43.1-73.6c3.1-5.2,3.1-13.7,0-18.9L52.5,66.9C49.4,61.7,42,57.4,36,57.4
		 M138.3,140.5L73.9,30.4c-3.1-5.2-10.5-9.5-16.5-9.5H0v1h57.4c5.7,0,12.8,4,15.6,9L137.4,141c2.9,4.9,2.9,13,0,17.9L73,269.1
		c-2.9,4.9-9.9,9-15.6,9H0v1h57.4c6,0,13.5-4.2,16.5-9.5l64.4-110.1C141.3,154.2,141.3,145.8,138.3,140.5 M181,140.5L98.8,0h-1.2
		l82.5,141c2.9,4.9,2.9,13,0,17.9L97.6,300h1.2L181,159.5C184.1,154.2,184.1,145.8,181,140.5 M223.7,140.5L141.5,0h-1.2l82.5,141
		c2.9,4.9,2.9,13,0,17.9l-82.5,141h1.2l82.2-140.5C226.8,154.2,226.8,145.8,223.7,140.5 M266.5,140.5L184.3,0h-1.2l82.5,141
		c2.9,4.9,2.9,13,0,17.9l-82.5,141h1.2l82.2-140.5C269.5,154.2,269.5,145.8,266.5,140.5 M309.2,140.5L227,0h-1.2l82.5,141
		c2.9,4.9,2.9,13,0,17.9l-82.5,141h1.2l82.2-140.5C312.2,154.2,312.2,145.8,309.2,140.5 M351.9,140.5L269.7,0h-1.2L351,141
		c2.9,4.9,2.9,13,0,17.9l-82.5,141h1.2l82.2-140.5C355,154.2,355,145.8,351.9,140.5 M394.6,140.5L312.4,0h-1.2l82.5,141
		c2.9,4.9,2.9,13,0,17.9l-82.5,141h1.2l82.2-140.5C397.7,154.2,397.7,145.8,394.6,140.5"/>
</g>
<g>
	
		<linearGradient id="SVGID_00000105415455858371150590000009631553992945197240_" gradientUnits="userSpaceOnUse" x1="1198.6907" y1="150" x2="760.5734" y2="150" gradientTransform="matrix(-1 0 0 1 1960.9575 0)">
		<stop  offset="0" style="stop-color:#00B5E2"/>
		<stop  offset="1" style="stop-color:#32007C"/>
	</linearGradient>
	<path style="fill:url(#SVGID_00000105415455858371150590000009631553992945197240_);" d="M846.3,0h-1.2L763,140.5
		c-3.1,5.2-3.1,13.7,0,18.9L845.1,300h1.2l-82.5-141c-2.9-4.9-2.9-13,0-17.9L846.3,0z M1185.7,206h14.6v-1h-14.6
		c-5.7,0-12.7-4-15.6-9l-21.7-37.1c-2.9-4.9-2.9-13,0-17.9l21.7-37.1c2.9-4.9,9.9-9,15.6-9h14.6v-1h-14.6c-6,0-13.5,4.2-16.5,9.5
		l-21.7,37.1c-3.1,5.2-3.1,13.7,0,18.9l21.7,37.1C1172.2,201.8,1179.6,206,1185.7,206 M1164.3,242.6h36v-1h-36c-5.7,0-12.7-4-15.6-9
		l-43.1-73.6c-2.9-4.9-2.9-13,0-17.9l43.1-73.6c2.9-4.9,9.9-9,15.6-9h36v-1h-36c-6,0-13.5,4.2-16.5,9.5l-43.1,73.6
		c-3.1,5.2-3.1,13.7,0,18.9l43.1,73.6C1150.9,238.3,1158.3,242.6,1164.3,242.6 M1062,159.5l64.4,110.1c3.1,5.2,10.5,9.5,16.5,9.5
		h57.3v-1h-57.3c-5.7,0-12.8-4-15.6-9L1062.9,159c-2.9-4.9-2.9-13,0-17.9L1127.3,31c2.9-4.9,9.9-9,15.6-9h57.3v-1h-57.3
		c-6,0-13.5,4.2-16.5,9.5l-64.4,110C1059,145.8,1059,154.2,1062,159.5 M1019.3,159.5l82.2,140.5h1.2l-82.5-141
		c-2.9-4.9-2.9-13,0-17.9l82.5-141h-1.2l-82.2,140.5C1016.2,145.8,1016.2,154.2,1019.3,159.5 M976.6,159.5l82.2,140.5h1.2l-82.5-141
		c-2.9-4.9-2.9-13,0-17.9l82.5-141h-1.2l-82.2,140.5C973.5,145.8,973.5,154.2,976.6,159.5 M933.8,159.5L1016,300h1.2l-82.5-141
		c-2.9-4.9-2.9-13,0-17.9l82.5-141h-1.2l-82.2,140.5C930.8,145.8,930.8,154.2,933.8,159.5 M891.1,159.5L973.3,300h1.2L892,159
		c-2.9-4.9-2.9-13,0-17.9L974.5,0h-1.2l-82.2,140.5C888.1,145.8,888.1,154.2,891.1,159.5 M848.4,159.5L930.6,300h1.2l-82.5-141
		c-2.9-4.9-2.9-13,0-17.9L931.8,0h-1.2l-82.2,140.5C845.3,145.8,845.3,154.2,848.4,159.5 M805.7,159.5L887.9,300h1.2l-82.5-141
		c-2.9-4.9-2.9-13,0-17.9L889,0h-1.2l-82.2,140.5C802.6,145.8,802.6,154.2,805.7,159.5"/>
</g>
</svg>
