<?xml version="1.0" encoding="utf-8"?>
<!-- Generator: Adobe Illustrator 27.7.0, SVG Export Plug-In . SVG Version: 6.00 Build 0)  -->
<svg version="1.1" id="Layer_1" xmlns="http://www.w3.org/2000/svg" xmlns:xlink="http://www.w3.org/1999/xlink" x="0px" y="0px"
	 viewBox="0 0 764.5 955.5" style="enable-background:new 0 0 764.5 955.5;" xml:space="preserve">
<style type="text/css">
	.st0{fill:url(#SVGID_1_);}
	.st1{fill:url(#SVGID_00000054259623142819868810000009299780848926618522_);}
	.st2{fill:url(#SVGID_00000023266074144177893470000011463881889782367377_);}
	.st3{fill:url(#SVGID_00000048494630679180358660000001004545308672610993_);}
</style>
<g>
	<linearGradient id="SVGID_1_" gradientUnits="userSpaceOnUse" x1="922.8015" y1="826.4794" x2="247.4146" y2="-47.6836">
		<stop  offset="0" style="stop-color:#00B5E2"/>
		<stop  offset="1" style="stop-color:#32007C"/>
	</linearGradient>
	<path class="st0" d="M473.5,133.7H198.3c-15.7,0-28.4-12.7-28.4-28.4V28.4c0-15.7,12.7-28.4,28.4-28.4h275.2
		c15.7,0,28.4,12.7,28.4,28.4v76.8C501.9,121,489.2,133.7,473.5,133.7z"/>
	
		<linearGradient id="SVGID_00000139993518367083568670000009783116045278291622_" gradientUnits="userSpaceOnUse" x1="707.8986" y1="992.5154" x2="32.5117" y2="118.3525">
		<stop  offset="0" style="stop-color:#00B5E2"/>
		<stop  offset="1" style="stop-color:#32007C"/>
	</linearGradient>
	<path style="fill:url(#SVGID_00000139993518367083568670000009783116045278291622_);" d="M584.1,66.6h-50.3v29
		c0,38.6-31.4,70-70,70H208c-38.6,0-70-31.4-70-70v-29H87.7C39.3,66.6,0,105.9,0,154.3v713.5c0,48.4,39.3,87.7,87.7,87.7h496.4
		c48.4,0,87.7-39.3,87.7-87.7V154.3C671.8,105.9,632.6,66.6,584.1,66.6z M196.9,751.7l-53.6,87c-2.7,4.3-7.2,7.1-12.3,7.5
		c-0.4,0-0.9,0.1-1.3,0.1c-4.6,0-9-2-12-5.4l-45.3-51.7c-5.8-6.6-5.1-16.7,1.5-22.5c6.6-5.8,16.7-5.1,22.5,1.5l31.1,35.5l42.3-68.6
		c4.6-7.5,14.5-9.8,22-5.2C199.2,734.4,201.5,744.2,196.9,751.7z M196.9,517.5l-53.6,87c-2.7,4.3-7.2,7.1-12.3,7.5
		c-0.4,0-0.9,0.1-1.3,0.1c-4.6,0-9-2-12-5.4l-45.3-51.7c-5.8-6.6-5.1-16.7,1.5-22.5c6.6-5.8,16.7-5.1,22.5,1.5l31.1,35.5l42.3-68.6
		c4.6-7.5,14.5-9.8,22-5.2C199.2,500.1,201.5,510,196.9,517.5z M196.9,283.2l-53.6,87c-2.7,4.3-7.2,7.1-12.3,7.5
		c-0.4,0-0.9,0.1-1.3,0.1c-4.6,0-9-2-12-5.4l-45.3-51.7c-5.8-6.6-5.1-16.7,1.5-22.5c6.6-5.8,16.7-5.1,22.5,1.5l31.1,35.5l42.3-68.6
		c4.6-7.5,14.5-9.8,22-5.2C199.2,265.9,201.5,275.7,196.9,283.2z M579.2,802.8H314.4c-8.8,0-16-7.1-16-16c0-8.8,7.1-16,16-16h264.8
		c8.8,0,16,7.1,16,16C595.2,795.7,588,802.8,579.2,802.8z M579.2,568.6H314.4c-8.8,0-16-7.1-16-16c0-8.8,7.1-16,16-16h264.8
		c8.8,0,16,7.1,16,16C595.2,561.4,588,568.6,579.2,568.6z M579.2,334.3H314.4c-8.8,0-16-7.1-16-16s7.1-16,16-16h264.8
		c8.8,0,16,7.1,16,16S588,334.3,579.2,334.3z"/>
	<g>
		
			<linearGradient id="SVGID_00000158711636102187371180000013578441896548686213_" gradientUnits="userSpaceOnUse" x1="930.8986" y1="820.2234" x2="255.5117" y2="-53.9395">
			<stop  offset="0" style="stop-color:#00B5E2"/>
			<stop  offset="1" style="stop-color:#32007C"/>
		</linearGradient>
		<path style="fill:url(#SVGID_00000158711636102187371180000013578441896548686213_);" d="M744.9,176.5h-21.5c-4.4,0-8.3,3-9.5,7.2
			l-5.8,20.6c-2.9,10.4-4.4,21.1-4.4,31.9v688.8c0,16.8,13.6,30.4,30.4,30.4l0,0c16.8,0,30.4-13.6,30.4-30.4V236.3
			c0-10.8-1.5-21.5-4.4-31.9l-5.8-20.6C753.2,179.4,749.3,176.5,744.9,176.5z"/>
		
			<linearGradient id="SVGID_00000152954727927642719990000001777157082135957164_" gradientUnits="userSpaceOnUse" x1="1141.0496" y1="657.8587" x2="465.6627" y2="-216.3042">
			<stop  offset="0" style="stop-color:#00B5E2"/>
			<stop  offset="1" style="stop-color:#32007C"/>
		</linearGradient>
		<path style="fill:url(#SVGID_00000152954727927642719990000001777157082135957164_);" d="M723.4,144.5h21.5c2.3,0,4.5,0.2,6.8,0.6
			l-11.4-41.7c-1.7-6.2-10.5-6.2-12.2,0l-11.4,41.7C718.9,144.7,721.1,144.5,723.4,144.5z"/>
	</g>
</g>
</svg>
