<?xml version="1.0" encoding="utf-8"?>
<!-- Generator: Adobe Illustrator 27.7.0, SVG Export Plug-In . SVG Version: 6.00 Build 0)  -->
<svg version="1.1" id="Layer_1" xmlns="http://www.w3.org/2000/svg" xmlns:xlink="http://www.w3.org/1999/xlink" x="0px" y="0px"
	 viewBox="0 0 951.2 1004.7" style="enable-background:new 0 0 951.2 1004.7;" xml:space="preserve">
<style type="text/css">
	.st0{fill:url(#SVGID_1_);}
	.st1{fill:url(#SVGID_00000015320503475932293240000006452671486334147980_);}
	.st2{fill:url(#SVGID_00000129892994729417613780000001044663275357711768_);}
	.st3{fill:url(#SVGID_00000046309219703682894170000005440359586842188966_);}
	.st4{fill:url(#SVGID_00000028319914100415381390000017440300405915348151_);}
	.st5{fill:url(#SVGID_00000036249062969882172380000014681568624861344676_);}
	.st6{fill:url(#SVGID_00000041282774174577283250000006192699406769711280_);}
	.st7{fill:url(#SVGID_00000026161625489722377550000011831165728171515833_);}
	.st8{fill:url(#SVGID_00000078028042231076849800000000371112282347634596_);}
</style>
<g>
	<g>
		<linearGradient id="SVGID_1_" gradientUnits="userSpaceOnUse" x1="758.5204" y1="908.3383" x2="198.3333" y2="122.2692">
			<stop  offset="0" style="stop-color:#00B5E2"/>
			<stop  offset="1" style="stop-color:#32007C"/>
		</linearGradient>
		<path class="st0" d="M675.5,398.9c-52.9-129.7-175-137.2-200.4-137.2c-25.4,0-147.5,7.6-200.4,137.2
			c-52.9,129.7,59.2,251.5,81,287.2c21.9,35.7,10.5,86.7,25.1,94.8c14.6,8.1,173.9,8.1,188.5,0c14.6-8.1,3.2-59.2,25.1-94.8
			C616.3,650.4,728.4,528.6,675.5,398.9z M467,401.2c-2.1,0-52.7,1.1-75.2,76.7c-4.8,16.2-19.6,26.6-35.6,26.6
			c-3.5,0-7.1-0.5-10.6-1.5c-19.7-5.8-30.9-26.6-25.1-46.2C351,354.2,426.9,326.8,467,326.8c20.5,0,37.2,16.7,37.2,37.2
			C504.1,384.6,487.5,401.2,467,401.2z"/>
		<g>
			
				<linearGradient id="SVGID_00000102517133792462212250000006730980804198246031_" gradientUnits="userSpaceOnUse" x1="956.379" y1="767.3356" x2="396.1919" y2="-18.7335">
				<stop  offset="0" style="stop-color:#00B5E2"/>
				<stop  offset="1" style="stop-color:#32007C"/>
			</linearGradient>
			<path style="fill:url(#SVGID_00000102517133792462212250000006730980804198246031_);" d="M475,183.8c-20.5,0-37.2-16.7-37.2-37.2
				V37.2C437.8,16.7,454.5,0,475,0c20.5,0,37.2,16.7,37.2,37.2v109.4C512.2,167.1,495.6,183.8,475,183.8z"/>
		</g>
		<g>
			
				<linearGradient id="SVGID_00000017498908885516041060000012808676475681643413_" gradientUnits="userSpaceOnUse" x1="1040.3041" y1="707.5269" x2="480.191" y2="-78.4383">
				<stop  offset="0" style="stop-color:#00B5E2"/>
				<stop  offset="1" style="stop-color:#32007C"/>
			</linearGradient>
			<path style="fill:url(#SVGID_00000017498908885516041060000012808676475681643413_);" d="M767.5,453.6
				c0-20.5,16.7-37.2,37.2-37.2h109.4c20.5,0,37.2,16.6,37.2,37.2c0,20.5-16.7,37.2-37.2,37.2H804.7
				C784.1,490.8,767.5,474.2,767.5,453.6z"/>
		</g>
		<g>
			
				<linearGradient id="SVGID_00000071529306283530646890000001073134121375414946_" gradientUnits="userSpaceOnUse" x1="531.3247" y1="1070.2478" x2="-28.7881" y2="284.283">
				<stop  offset="0" style="stop-color:#00B5E2"/>
				<stop  offset="1" style="stop-color:#32007C"/>
			</linearGradient>
			<path style="fill:url(#SVGID_00000071529306283530646890000001073134121375414946_);" d="M0,453.6c0-20.5,16.7-37.2,37.2-37.2
				h109.4c20.5,0,37.2,16.6,37.2,37.2c0,20.5-16.7,37.2-37.2,37.2H37.2C16.7,490.8,0,474.2,0,453.6z"/>
		</g>
		<g>
			
				<linearGradient id="SVGID_00000047782695934255739800000014164690690421935279_" gradientUnits="userSpaceOnUse" x1="726.28" y1="931.3141" x2="166.0929" y2="145.2451">
				<stop  offset="0" style="stop-color:#00B5E2"/>
				<stop  offset="1" style="stop-color:#32007C"/>
			</linearGradient>
			<path style="fill:url(#SVGID_00000047782695934255739800000014164690690421935279_);" d="M141.2,136.5
				c14.5-14.5,38.1-14.5,52.6,0l77.4,77.4c14.5,14.5,14.5,38.1,0,52.6c-14.5,14.5-38.1,14.5-52.6,0l-77.4-77.4
				C126.7,174.6,126.7,151,141.2,136.5z"/>
		</g>
		<g>
			
				<linearGradient id="SVGID_00000066516690601714534720000001626586500548380812_" gradientUnits="userSpaceOnUse" x1="1082.3387" y1="677.5711" x2="522.1517" y2="-108.4979">
				<stop  offset="0" style="stop-color:#00B5E2"/>
				<stop  offset="1" style="stop-color:#32007C"/>
			</linearGradient>
			<path style="fill:url(#SVGID_00000066516690601714534720000001626586500548380812_);" d="M808,136.5c14.5,14.5,14.5,38.1,0,52.6
				l-77.4,77.4c-14.5,14.5-38.1,14.5-52.6,0c-14.5-14.5-14.5-38.1,0-52.6l77.4-77.4C770,122,793.5,122,808,136.5z"/>
		</g>
		<g>
			
				<linearGradient id="SVGID_00000047750578391656912150000015320086075986043824_" gradientUnits="userSpaceOnUse" x1="814.6998" y1="868.3023" x2="254.5127" y2="82.2333">
				<stop  offset="0" style="stop-color:#00B5E2"/>
				<stop  offset="1" style="stop-color:#32007C"/>
			</linearGradient>
			<path style="fill:url(#SVGID_00000047750578391656912150000015320086075986043824_);" d="M678.1,702.8
				c14.5-14.5,38.1-14.5,52.6,0l77.4,77.4c14.5,14.5,14.5,38.1,0,52.6c-14.5,14.5-38.1,14.5-52.6,0l-77.4-77.4
				C663.6,740.9,663.6,717.3,678.1,702.8z"/>
		</g>
		<g>
			
				<linearGradient id="SVGID_00000137846565879136483950000014943009224158676646_" gradientUnits="userSpaceOnUse" x1="458.7155" y1="1121.9923" x2="-101.4716" y2="335.9232">
				<stop  offset="0" style="stop-color:#00B5E2"/>
				<stop  offset="1" style="stop-color:#32007C"/>
			</linearGradient>
			<path style="fill:url(#SVGID_00000137846565879136483950000014943009224158676646_);" d="M271.3,702.8
				c14.5,14.5,14.5,38.1,0,52.6l-77.4,77.4c-14.5,14.5-38.1,14.5-52.6,0c-14.5-14.5-14.5-38.1,0-52.6l77.4-77.4
				C233.2,688.3,256.7,688.3,271.3,702.8z"/>
		</g>
		
			<linearGradient id="SVGID_00000173126645584823669530000000520127207130415783_" gradientUnits="userSpaceOnUse" x1="572.5738" y1="1040.8519" x2="12.3867" y2="254.7829">
			<stop  offset="0" style="stop-color:#00B5E2"/>
			<stop  offset="1" style="stop-color:#32007C"/>
		</linearGradient>
		<path style="fill:url(#SVGID_00000173126645584823669530000000520127207130415783_);" d="M540.1,859.7
			c-18.1,1.1-41.2,1.6-65.1,1.6c-23.9,0-47-0.6-65.1-1.6c-8-0.5-15.1-1-21.4-1.7v90.4c0,1.4,0.6,2.8,1.7,3.7l29,24.4
			c0.9,0.7,2,1.1,3.1,1.1c1.9,0,3.6,1.1,4.4,2.8l10.3,21.5c0.8,1.7,2.5,2.8,4.4,2.8h66.8c1.9,0,3.6-1.1,4.4-2.8l10.3-21.5
			c0.8-1.7,2.5-2.8,4.4-2.8c1.2,0,2.3-0.4,3.1-1.1l29-24.4c1.1-0.9,1.7-2.3,1.7-3.7V858C555.2,858.7,548.1,859.2,540.1,859.7z"/>
	</g>
</g>
</svg>
