<?xml version="1.0" encoding="utf-8"?>
<!-- Generator: Adobe Illustrator 27.7.0, SVG Export Plug-In . SVG Version: 6.00 Build 0)  -->
<svg version="1.1" id="Layer_1" xmlns="http://www.w3.org/2000/svg" xmlns:xlink="http://www.w3.org/1999/xlink" x="0px" y="0px"
	 viewBox="0 0 1185.5 1004.7" style="enable-background:new 0 0 1185.5 1004.7;" xml:space="preserve">
<style type="text/css">
	.st0{fill:url(#SVGID_1_);}
	.st1{fill:url(#SVGID_00000026138441235481688230000002803377536637548989_);}
	.st2{fill:url(#SVGID_00000093139773815362229240000009744764819698026885_);}
	.st3{fill:url(#SVGID_00000119091028758941212680000008804641868719171260_);}
	.st4{fill:url(#SVGID_00000126297778867964681470000006470051356601711262_);}
	.st5{fill:url(#SVGID_00000047038168476515257290000006466157043581134773_);}
	.st6{fill:url(#SVGID_00000044857673264544762400000007859595964202771387_);}
	.st7{fill:url(#SVGID_00000085936518485212100460000009314444258211569054_);}
	.st8{fill:url(#SVGID_00000142857577493305014180000010057508195423253889_);}
	.st9{fill:url(#SVGID_00000107573867145025415330000015619540843833930380_);}
	.st10{fill:url(#SVGID_00000008860131275568207980000005793561596289706920_);}
	.st11{fill:url(#SVGID_00000120520716988793489700000003471565340345259959_);}
</style>
<g>
	<linearGradient id="SVGID_1_" gradientUnits="userSpaceOnUse" x1="1300.3965" y1="736.4762" x2="523.3628" y2="20.4306">
		<stop  offset="0" style="stop-color:#00B5E2"/>
		<stop  offset="1" style="stop-color:#32007C"/>
	</linearGradient>
	<path class="st0" d="M755.4,91.3l-127-85.4c-10.1-6.8-23-7.7-33.9-2.5l-161.3,77l145.1,96.4L755.4,91.3z"/>
	
		<linearGradient id="SVGID_00000003071167270198610610000005762564975944445615_" gradientUnits="userSpaceOnUse" x1="1247.0524" y1="794.364" x2="470.0186" y2="78.3183">
		<stop  offset="0" style="stop-color:#00B5E2"/>
		<stop  offset="1" style="stop-color:#32007C"/>
	</linearGradient>
	<path style="fill:url(#SVGID_00000003071167270198610610000005762564975944445615_);" d="M611.2,423.4l156.3-75.4
		c11.9-5.7,19.4-17.7,19.4-30.9V155.4l-175.7,84.8V423.4z"/>
	
		<linearGradient id="SVGID_00000098926480534672384320000014970183235149313696_" gradientUnits="userSpaceOnUse" x1="1146.9976" y1="902.9408" x2="369.9638" y2="186.8952">
		<stop  offset="0" style="stop-color:#00B5E2"/>
		<stop  offset="1" style="stop-color:#32007C"/>
	</linearGradient>
	<path style="fill:url(#SVGID_00000098926480534672384320000014970183235149313696_);" d="M413.9,333.3l125.9,83.6v-180l-141.2-93.8
		v161.6C398.6,316.2,404.3,326.9,413.9,333.3z"/>
	
		<linearGradient id="SVGID_00000029021229605779027750000014734400069057087166_" gradientUnits="userSpaceOnUse" x1="827.6785" y1="1249.4573" x2="50.6448" y2="533.4117">
		<stop  offset="0" style="stop-color:#00B5E2"/>
		<stop  offset="1" style="stop-color:#32007C"/>
	</linearGradient>
	<path style="fill:url(#SVGID_00000029021229605779027750000014734400069057087166_);" d="M229.9,587.2c-10.1-6.8-23-7.7-33.9-2.5
		l-161.3,77l145.1,96.4l177.1-85.5L229.9,587.2z"/>
	
		<linearGradient id="SVGID_00000060023052377284435140000015359342064401976960_" gradientUnits="userSpaceOnUse" x1="774.3342" y1="1307.3451" x2="-2.6995" y2="591.2994">
		<stop  offset="0" style="stop-color:#00B5E2"/>
		<stop  offset="1" style="stop-color:#32007C"/>
	</linearGradient>
	<path style="fill:url(#SVGID_00000060023052377284435140000015359342064401976960_);" d="M212.7,1004.7l156.3-75.4
		c11.9-5.7,19.4-17.7,19.4-30.9V736.7l-175.7,84.8V1004.7z"/>
	
		<linearGradient id="SVGID_00000155140797709485297700000009363646674863063687_" gradientUnits="userSpaceOnUse" x1="674.2795" y1="1415.9219" x2="-102.7542" y2="699.8762">
		<stop  offset="0" style="stop-color:#00B5E2"/>
		<stop  offset="1" style="stop-color:#32007C"/>
	</linearGradient>
	<path style="fill:url(#SVGID_00000155140797709485297700000009363646674863063687_);" d="M0,886c0,11.5,5.8,22.2,15.3,28.6
		l125.9,83.6v-180L0,724.4V886z"/>
	
		<linearGradient id="SVGID_00000135667320922021511880000009047413853921475733_" gradientUnits="userSpaceOnUse" x1="1193.743" y1="852.2137" x2="416.7094" y2="136.1681">
		<stop  offset="0" style="stop-color:#00B5E2"/>
		<stop  offset="1" style="stop-color:#32007C"/>
	</linearGradient>
	<path style="fill:url(#SVGID_00000135667320922021511880000009047413853921475733_);" d="M1027,587.2c-10.1-6.8-23-7.7-33.9-2.5
		l-161.3,77l145.1,96.4l177.1-85.5L1027,587.2z"/>
	
		<linearGradient id="SVGID_00000065794667492698311960000011869639887014206603_" gradientUnits="userSpaceOnUse" x1="1140.3988" y1="910.1014" x2="363.3651" y2="194.0558">
		<stop  offset="0" style="stop-color:#00B5E2"/>
		<stop  offset="1" style="stop-color:#32007C"/>
	</linearGradient>
	<path style="fill:url(#SVGID_00000065794667492698311960000011869639887014206603_);" d="M1009.8,821.5v183.2l156.3-75.4
		c11.9-5.7,19.4-17.7,19.4-30.9V736.7L1009.8,821.5z"/>
	
		<linearGradient id="SVGID_00000003816329876595584860000017877889069917711010_" gradientUnits="userSpaceOnUse" x1="1040.3441" y1="1018.6782" x2="263.3104" y2="302.6326">
		<stop  offset="0" style="stop-color:#00B5E2"/>
		<stop  offset="1" style="stop-color:#32007C"/>
	</linearGradient>
	<path style="fill:url(#SVGID_00000003816329876595584860000017877889069917711010_);" d="M797.1,886c0,11.5,5.8,22.2,15.3,28.6
		l125.9,83.6v-180l-141.2-93.8V886z"/>
	
		<linearGradient id="SVGID_00000148640639559240046450000006792777058890538653_" gradientUnits="userSpaceOnUse" x1="1175.4628" y1="872.051" x2="398.4291" y2="156.0054">
		<stop  offset="0" style="stop-color:#00B5E2"/>
		<stop  offset="1" style="stop-color:#32007C"/>
	</linearGradient>
	<path style="fill:url(#SVGID_00000148640639559240046450000006792777058890538653_);" d="M704.4,457.7l95.6,140
		c0.3-0.2,0.6-0.3,0.9-0.5l64.3-30.7l-95.8-140.3L704.4,457.7z"/>
	
		<linearGradient id="SVGID_00000016059989883872307170000008488380475176978076_" gradientUnits="userSpaceOnUse" x1="946.4771" y1="1120.5403" x2="169.4433" y2="404.4946">
		<stop  offset="0" style="stop-color:#00B5E2"/>
		<stop  offset="1" style="stop-color:#32007C"/>
	</linearGradient>
	
		<rect x="459.7" y="758.8" style="fill:url(#SVGID_00000016059989883872307170000008488380475176978076_);" width="266" height="71.4"/>
	
		<linearGradient id="SVGID_00000085970468912004198370000008685112601469682611_" gradientUnits="userSpaceOnUse" x1="996.2372" y1="1066.5417" x2="219.2035" y2="350.4962">
		<stop  offset="0" style="stop-color:#00B5E2"/>
		<stop  offset="1" style="stop-color:#32007C"/>
	</linearGradient>
	<polygon style="fill:url(#SVGID_00000085970468912004198370000008685112601469682611_);" points="302.9,550.2 362.1,590 
		459.3,449.2 399.8,409.6 	"/>
</g>
</svg>
